<?xml version="1.0" encoding="UTF-8" standalone="no"?>
<!DOCTYPE svg PUBLIC "-//W3C//DTD SVG 1.1//EN"
 "http://www.w3.org/Graphics/SVG/1.1/DTD/svg11.dtd">
<!-- Generated by graphviz version 2.43.0 (0)
 -->
<!-- Title: pastafarianism Pages: 1 -->
<svg width="176pt" height="188pt"
 viewBox="0.00 0.00 176.06 188.00" xmlns="http://www.w3.org/2000/svg" xmlns:xlink="http://www.w3.org/1999/xlink">
<g id="graph0" class="graph" transform="scale(1 1) rotate(0) translate(4 184)">
<title>pastafarianism</title>
<polygon fill="white" stroke="transparent" points="-4,4 -4,-184 172.06,-184 172.06,4 -4,4"/>
<!-- Sequence -->
<g id="node1" class="node">
<title>Sequence</title>
<polygon fill="orange" stroke="black" points="123.26,-180 47.26,-180 47.26,-144 123.26,-144 123.26,-180"/>
<text text-anchor="middle" x="85.26" y="-159.8" font-family="Times,serif" font-size="9.00">Ⓜ Sequence</text>
</g>
<!-- Sequence* -->
<g id="node2" class="node">
<title>Sequence*</title>
<polygon fill="orange" stroke="black" points="125.26,-108 45.26,-108 45.26,-72 125.26,-72 125.26,-108"/>
<text text-anchor="middle" x="85.26" y="-87.8" font-family="Times,serif" font-size="9.00">Ⓜ Sequence*</text>
</g>
<!-- Sequence&#45;&gt;Sequence* -->
<g id="edge1" class="edge">
<title>Sequence&#45;&gt;Sequence*</title>
<path fill="none" stroke="black" d="M85.26,-143.7C85.26,-135.98 85.26,-126.71 85.26,-118.11"/>
<polygon fill="black" stroke="black" points="88.76,-118.1 85.26,-108.1 81.76,-118.1 88.76,-118.1"/>
</g>
<!-- MoveJoints -->
<g id="node3" class="node">
<title>MoveJoints</title>
<ellipse fill="gray" stroke="black" cx="39.26" cy="-18" rx="39.02" ry="18"/>
<text text-anchor="middle" x="39.26" y="-15.8" font-family="Times,serif" font-size="9.00">MoveJoints</text>
</g>
<!-- Sequence*&#45;&gt;MoveJoints -->
<g id="edge2" class="edge">
<title>Sequence*&#45;&gt;MoveJoints</title>
<path fill="none" stroke="black" d="M73.89,-71.7C68.41,-63.35 61.72,-53.18 55.7,-44.02"/>
<polygon fill="black" stroke="black" points="58.6,-42.06 50.18,-35.62 52.75,-45.9 58.6,-42.06"/>
</g>
<!-- MovePose -->
<g id="node4" class="node">
<title>MovePose</title>
<ellipse fill="gray" stroke="black" cx="132.26" cy="-18" rx="35.59" ry="18"/>
<text text-anchor="middle" x="132.26" y="-15.8" font-family="Times,serif" font-size="9.00">MovePose</text>
</g>
<!-- Sequence*&#45;&gt;MovePose -->
<g id="edge3" class="edge">
<title>Sequence*&#45;&gt;MovePose</title>
<path fill="none" stroke="black" d="M96.88,-71.7C102.48,-63.35 109.31,-53.18 115.46,-44.02"/>
<polygon fill="black" stroke="black" points="118.43,-45.88 121.1,-35.62 112.62,-41.97 118.43,-45.88"/>
</g>
</g>
</svg>
