<?xml version="1.0" encoding="UTF-8" standalone="no"?>
<!DOCTYPE svg PUBLIC "-//W3C//DTD SVG 1.1//EN"
 "http://www.w3.org/Graphics/SVG/1.1/DTD/svg11.dtd">
<!-- Generated by graphviz version 2.43.0 (0)
 -->
<!-- Title: pastafarianism Pages: 1 -->
<svg width="986pt" height="352pt"
 viewBox="0.00 0.00 985.72 352.00" xmlns="http://www.w3.org/2000/svg" xmlns:xlink="http://www.w3.org/1999/xlink">
<g id="graph0" class="graph" transform="scale(1 1) rotate(0) translate(4 348)">
<title>pastafarianism</title>
<polygon fill="white" stroke="transparent" points="-4,4 -4,-348 981.72,-348 981.72,4 -4,4"/>
<!-- Sequence -->
<g id="node1" class="node">
<title>Sequence</title>
<polygon fill="orange" stroke="black" points="431.8,-344 355.8,-344 355.8,-308 431.8,-308 431.8,-344"/>
<text text-anchor="middle" x="393.8" y="-323.8" font-family="Times,serif" font-size="9.00">Ⓜ Sequence</text>
</g>
<!-- MoveJoints -->
<g id="node2" class="node">
<title>MoveJoints</title>
<ellipse fill="gray" stroke="black" cx="345.8" cy="-254" rx="39.02" ry="18"/>
<text text-anchor="middle" x="345.8" y="-251.8" font-family="Times,serif" font-size="9.00">MoveJoints</text>
</g>
<!-- Sequence&#45;&gt;MoveJoints -->
<g id="edge1" class="edge">
<title>Sequence&#45;&gt;MoveJoints</title>
<path fill="none" stroke="black" d="M381.93,-307.7C376.21,-299.35 369.24,-289.18 362.95,-280.02"/>
<polygon fill="black" stroke="black" points="365.74,-277.89 357.19,-271.62 359.96,-281.85 365.74,-277.89"/>
</g>
<!-- Sequence* -->
<g id="node3" class="node">
<title>Sequence*</title>
<polygon fill="orange" stroke="black" points="482.8,-272 402.8,-272 402.8,-236 482.8,-236 482.8,-272"/>
<text text-anchor="middle" x="442.8" y="-251.8" font-family="Times,serif" font-size="9.00">Ⓜ Sequence*</text>
</g>
<!-- Sequence&#45;&gt;Sequence* -->
<g id="edge2" class="edge">
<title>Sequence&#45;&gt;Sequence*</title>
<path fill="none" stroke="black" d="M405.91,-307.7C411.66,-299.47 418.66,-289.48 425,-280.42"/>
<polygon fill="black" stroke="black" points="427.96,-282.3 430.82,-272.1 422.22,-278.29 427.96,-282.3"/>
</g>
<!-- MovePose -->
<g id="node4" class="node">
<title>MovePose</title>
<ellipse fill="gray" stroke="black" cx="35.8" cy="-182" rx="35.59" ry="18"/>
<text text-anchor="middle" x="35.8" y="-179.8" font-family="Times,serif" font-size="9.00">MovePose</text>
</g>
<!-- Sequence*&#45;&gt;MovePose -->
<g id="edge3" class="edge">
<title>Sequence*&#45;&gt;MovePose</title>
<path fill="none" stroke="black" d="M402.62,-238.28C399.66,-237.43 396.69,-236.66 393.8,-236 257.27,-204.86 216.88,-232.99 80.8,-200 77.98,-199.32 75.1,-198.51 72.23,-197.62"/>
<polygon fill="black" stroke="black" points="73.18,-194.24 62.58,-194.35 70.93,-200.87 73.18,-194.24"/>
</g>
<!-- OpenGripper -->
<g id="node5" class="node">
<title>OpenGripper</title>
<ellipse fill="gray" stroke="black" cx="134.8" cy="-182" rx="45.07" ry="18"/>
<text text-anchor="middle" x="134.8" y="-179.8" font-family="Times,serif" font-size="9.00">OpenGripper</text>
</g>
<!-- Sequence*&#45;&gt;OpenGripper -->
<g id="edge4" class="edge">
<title>Sequence*&#45;&gt;OpenGripper</title>
<path fill="none" stroke="black" d="M402.58,-238.47C399.62,-237.58 396.67,-236.75 393.8,-236 304.26,-212.77 278.66,-221.94 188.8,-200 185.19,-199.12 181.48,-198.13 177.77,-197.08"/>
<polygon fill="black" stroke="black" points="178.6,-193.68 168.02,-194.21 176.62,-200.39 178.6,-193.68"/>
</g>
<!-- MovePose* -->
<g id="node6" class="node">
<title>MovePose*</title>
<ellipse fill="gray" stroke="black" cx="236.8" cy="-182" rx="38.87" ry="18"/>
<text text-anchor="middle" x="236.8" y="-179.8" font-family="Times,serif" font-size="9.00">MovePose*</text>
</g>
<!-- Sequence*&#45;&gt;MovePose* -->
<g id="edge5" class="edge">
<title>Sequence*&#45;&gt;MovePose*</title>
<path fill="none" stroke="black" d="M402.7,-239.03C399.69,-238 396.7,-236.98 393.8,-236 345.47,-219.64 333.07,-216.52 284.8,-200 281.92,-199.02 278.95,-197.99 275.96,-196.95"/>
<polygon fill="black" stroke="black" points="277.06,-193.62 266.46,-193.62 274.74,-200.23 277.06,-193.62"/>
</g>
<!-- CloseGripper -->
<g id="node7" class="node">
<title>CloseGripper</title>
<ellipse fill="gray" stroke="black" cx="338.8" cy="-182" rx="45.07" ry="18"/>
<text text-anchor="middle" x="338.8" y="-179.8" font-family="Times,serif" font-size="9.00">CloseGripper</text>
</g>
<!-- Sequence*&#45;&gt;CloseGripper -->
<g id="edge6" class="edge">
<title>Sequence*&#45;&gt;CloseGripper</title>
<path fill="none" stroke="black" d="M417.35,-235.88C402.88,-226.13 384.65,-213.86 369.39,-203.59"/>
<polygon fill="black" stroke="black" points="371.05,-200.49 360.8,-197.81 367.15,-206.3 371.05,-200.49"/>
</g>
<!-- MovePose** -->
<g id="node8" class="node">
<title>MovePose**</title>
<ellipse fill="gray" stroke="black" cx="442.8" cy="-182" rx="40.98" ry="18"/>
<text text-anchor="middle" x="442.8" y="-179.8" font-family="Times,serif" font-size="9.00">MovePose**</text>
</g>
<!-- Sequence*&#45;&gt;MovePose** -->
<g id="edge7" class="edge">
<title>Sequence*&#45;&gt;MovePose**</title>
<path fill="none" stroke="black" d="M442.8,-235.7C442.8,-227.98 442.8,-218.71 442.8,-210.11"/>
<polygon fill="black" stroke="black" points="446.3,-210.1 442.8,-200.1 439.3,-210.1 446.3,-210.1"/>
</g>
<!-- MeasureMassWithTorque -->
<g id="node9" class="node">
<title>MeasureMassWithTorque</title>
<ellipse fill="gray" stroke="black" cx="578.8" cy="-182" rx="77.23" ry="18"/>
<text text-anchor="middle" x="578.8" y="-179.8" font-family="Times,serif" font-size="9.00">MeasureMassWithTorque</text>
</g>
<!-- Sequence*&#45;&gt;MeasureMassWithTorque -->
<g id="edge8" class="edge">
<title>Sequence*&#45;&gt;MeasureMassWithTorque</title>
<path fill="none" stroke="black" d="M476.07,-235.88C495.16,-226.05 519.25,-213.65 539.3,-203.33"/>
<polygon fill="black" stroke="black" points="540.91,-206.44 548.2,-198.75 537.7,-200.21 540.91,-206.44"/>
</g>
<!-- MovePose*** -->
<g id="node10" class="node">
<title>MovePose***</title>
<ellipse fill="gray" stroke="black" cx="717.8" cy="-182" rx="43.76" ry="18"/>
<text text-anchor="middle" x="717.8" y="-179.8" font-family="Times,serif" font-size="9.00">MovePose***</text>
</g>
<!-- Sequence*&#45;&gt;MovePose*** -->
<g id="edge9" class="edge">
<title>Sequence*&#45;&gt;MovePose***</title>
<path fill="none" stroke="black" d="M483.14,-244.34C527.8,-234.52 601.82,-217.59 664.8,-200 668.15,-199.06 671.62,-198.05 675.1,-197"/>
<polygon fill="black" stroke="black" points="676.31,-200.29 684.83,-194 674.25,-193.6 676.31,-200.29"/>
</g>
<!-- Sequence** -->
<g id="node11" class="node">
<title>Sequence**</title>
<polygon fill="orange" stroke="black" points="864.3,-200 779.3,-200 779.3,-164 864.3,-164 864.3,-200"/>
<text text-anchor="middle" x="821.8" y="-179.8" font-family="Times,serif" font-size="9.00">Ⓜ Sequence**</text>
</g>
<!-- Sequence*&#45;&gt;Sequence** -->
<g id="edge10" class="edge">
<title>Sequence*&#45;&gt;Sequence**</title>
<path fill="none" stroke="black" d="M482.85,-248.64C543.24,-241.62 661.25,-226.1 769.33,-200.17"/>
<polygon fill="black" stroke="black" points="770.2,-203.56 779.09,-197.79 768.55,-196.76 770.2,-203.56"/>
</g>
<!-- OpenGripper* -->
<g id="node16" class="node">
<title>OpenGripper*</title>
<ellipse fill="gray" stroke="black" cx="929.8" cy="-182" rx="47.84" ry="18"/>
<text text-anchor="middle" x="929.8" y="-179.8" font-family="Times,serif" font-size="9.00">OpenGripper*</text>
</g>
<!-- Sequence*&#45;&gt;OpenGripper* -->
<g id="edge15" class="edge">
<title>Sequence*&#45;&gt;OpenGripper*</title>
<path fill="none" stroke="black" d="M482.88,-250.31C559.35,-244.68 731.07,-229.65 872.8,-200 876.72,-199.18 880.77,-198.22 884.8,-197.17"/>
<polygon fill="black" stroke="black" points="886.04,-200.46 894.76,-194.45 884.19,-193.71 886.04,-200.46"/>
</g>
<!-- Parallel -->
<g id="node12" class="node">
<title>Parallel</title>
<polygon fill="gold" stroke="black" points="833.12,-128 691.03,-128 654.47,-72 796.56,-72 833.12,-128"/>
<text text-anchor="middle" x="743.8" y="-102.8" font-family="Times,serif" font-size="9.00">Parallel</text>
<text text-anchor="middle" x="743.8" y="-92.8" font-family="Times,serif" font-size="9.00">SuccessOnOne</text>
</g>
<!-- Sequence**&#45;&gt;Parallel -->
<g id="edge11" class="edge">
<title>Sequence**&#45;&gt;Parallel</title>
<path fill="none" stroke="black" d="M804.87,-163.64C796.8,-155.37 786.85,-145.16 777.34,-135.41"/>
<polygon fill="black" stroke="black" points="779.68,-132.8 770.2,-128.08 774.67,-137.68 779.68,-132.8"/>
</g>
<!-- MovePose***** -->
<g id="node15" class="node">
<title>MovePose*****</title>
<ellipse fill="gray" stroke="black" cx="899.8" cy="-100" rx="49.15" ry="18"/>
<text text-anchor="middle" x="899.8" y="-97.8" font-family="Times,serif" font-size="9.00">MovePose*****</text>
</g>
<!-- Sequence**&#45;&gt;MovePose***** -->
<g id="edge14" class="edge">
<title>Sequence**&#45;&gt;MovePose*****</title>
<path fill="none" stroke="black" d="M838.72,-163.64C849.85,-152.22 864.56,-137.14 876.75,-124.63"/>
<polygon fill="black" stroke="black" points="879.49,-126.84 883.97,-117.23 874.48,-121.95 879.49,-126.84"/>
</g>
<!-- MeasureAppliedHE -->
<g id="node13" class="node">
<title>MeasureAppliedHE</title>
<ellipse fill="gray" stroke="black" cx="680.8" cy="-18" rx="61.55" ry="18"/>
<text text-anchor="middle" x="680.8" y="-15.8" font-family="Times,serif" font-size="9.00">MeasureAppliedHE</text>
</g>
<!-- Parallel&#45;&gt;MeasureAppliedHE -->
<g id="edge12" class="edge">
<title>Parallel&#45;&gt;MeasureAppliedHE</title>
<path fill="none" stroke="black" d="M722.47,-71.92C715.33,-62.85 707.4,-52.79 700.4,-43.89"/>
<polygon fill="black" stroke="black" points="702.96,-41.49 694.02,-35.79 697.46,-45.82 702.96,-41.49"/>
</g>
<!-- MovePose**** -->
<g id="node14" class="node">
<title>MovePose****</title>
<ellipse fill="gray" stroke="black" cx="806.8" cy="-18" rx="46.38" ry="18"/>
<text text-anchor="middle" x="806.8" y="-15.8" font-family="Times,serif" font-size="9.00">MovePose****</text>
</g>
<!-- Parallel&#45;&gt;MovePose**** -->
<g id="edge13" class="edge">
<title>Parallel&#45;&gt;MovePose****</title>
<path fill="none" stroke="black" d="M765.12,-71.92C772.45,-62.61 780.6,-52.27 787.73,-43.21"/>
<polygon fill="black" stroke="black" points="790.51,-45.34 793.94,-35.32 785.01,-41.01 790.51,-45.34"/>
</g>
</g>
</svg>
